HIERARCHY
ROOT SpineBase
{
  OFFSET 0.000000 0.000000 0.000000
  CHANNELS 6 Xposition Yposition Zposition Zrotation Xrotation Yrotation
  JOINT SpineMid
  {
    OFFSET 0.000000 28.394704 0.000000
    CHANNELS 3 Zrotation Xrotation Yrotation
    JOINT SpineShoulder
    {
      OFFSET -0.056498 21.062413 -0.697638
      CHANNELS 3 Zrotation Xrotation Yrotation
      JOINT Neck
      {
        OFFSET -0.045261 6.966228 -0.528196
        CHANNELS 3 Zrotation Xrotation Yrotation
        JOINT Head
        {
          OFFSET -2.355958 10.668941 -0.809827
          CHANNELS 3 Zrotation Xrotation Yrotation
          End Site
          {
            OFFSET 0 0 0
          }
        }
      }
      JOINT ShoulderLeft
      {
        OFFSET -16.891392 -1.493229 5.505884
        CHANNELS 3 Zrotation Xrotation Yrotation
        JOINT ElbowLeft
        {
          OFFSET -7.027882 -23.141910 -0.994248
          CHANNELS 3 Zrotation Xrotation Yrotation
          JOINT WristLeft
          {
            OFFSET 7.939990 1.372122 -29.742737
            CHANNELS 3 Zrotation Xrotation Yrotation
            JOINT HandLeft
            {
              OFFSET 5.647086 -1.108222 -5.660817
              CHANNELS 3 Zrotation Xrotation Yrotation
              JOINT HandTipLeft
              {
                OFFSET 3.666533 -0.970680 -2.249792
                CHANNELS 3 Zrotation Xrotation Yrotation
                End Site
                {
                  OFFSET 0 0 0
                }
              }
              JOINT ThumbLeft
              {
                OFFSET -3.165311 2.699317 -2.699964
                CHANNELS 3 Zrotation Xrotation Yrotation
                End Site
                {
                  OFFSET 0 0 0
                }
              }
            }
          }
        }
      }
      JOINT ShoulderRight
      {
        OFFSET 14.374459 -0.988136 -6.530328
        CHANNELS 3 Zrotation Xrotation Yrotation
        JOINT ElbowRight
        {
          OFFSET 6.442079 -22.736858 -7.806706
          CHANNELS 3 Zrotation Xrotation Yrotation
          JOINT WristRight
          {
            OFFSET -25.982525 -1.574998 -15.765613
            CHANNELS 3 Zrotation Xrotation Yrotation
            JOINT HandRight
            {
              OFFSET -2.998563 0.509666 -1.649865
              CHANNELS 3 Zrotation Xrotation Yrotation
              JOINT HandTipRight
              {
                OFFSET -3.832455 1.832996 -1.552070
                CHANNELS 3 Zrotation Xrotation Yrotation
                End Site
                {
                  OFFSET 0 0 0
                }
              }
              JOINT ThumbRight
              {
                OFFSET 0.511006 -3.075672 -1.575432
                CHANNELS 3 Zrotation Xrotation Yrotation
                End Site
                {
                  OFFSET 0 0 0
                }
              }
            }
          }
        }
      }
    }
  }
  JOINT HipLeft
  {
    OFFSET -7.152327 0.273920 -1.570476
    CHANNELS 3 Zrotation Xrotation Yrotation
    JOINT KneeLeft
    {
      OFFSET -4.916728 -31.163216 1.633393
      CHANNELS 3 Zrotation Xrotation Yrotation
      JOINT AnkleLeft
      {
        OFFSET -0.472046 -34.063066 5.898852
        CHANNELS 3 Zrotation Xrotation Yrotation
        JOINT FootLeft
        {
          OFFSET -3.239036 -3.886264 -12.520216
          CHANNELS 3 Zrotation Xrotation Yrotation
          End Site
          {
            OFFSET 0 0 0
          }
        }
      }
    }
  }
  JOINT HipRight
  {
    OFFSET 6.586455 1.015961 -5.284874
    CHANNELS 3 Zrotation Xrotation Yrotation
    JOINT KneeRight
    {
      OFFSET 5.316950 -28.527468 3.853367
      CHANNELS 3 Zrotation Xrotation Yrotation
      JOINT AnkleRight
      {
        OFFSET 2.000808 -33.959280 8.222841
        CHANNELS 3 Zrotation Xrotation Yrotation
        JOINT FootRight
        {
          OFFSET -3.534200 -4.260965 -11.744008
          CHANNELS 3 Zrotation Xrotation Yrotation
          End Site
          {
            OFFSET 0 0 0
          }
        }
      }
    }
  }
}
MOTION
Frames: 12
Frame Time: 0.033333
30.157760 70.483021 362.247332 -0.000000 0.000000 15.128726 0.000000 0.000000 -15.128726 -0.000000 0.000000 0.000000 -0.000000 0.000000 0.000000 0.000000 0.000000 0.000000 -0.000000 0.000000 0.000000 -0.000000 0.000000 0.000000 -0.000000 0.000000 0.000000 -0.000000 0.000000 0.000000 0.000000 0.000000 0.000000 0.000000 0.000000 0.000000 -0.000000 0.000000 0.000000 -0.000000 0.000000 0.000000 -0.000000 0.000000 0.000000 -0.000000 0.000000 0.000000 0.000000 0.000000 0.000000 0.000000 0.000000 0.000000 0.000000 0.000000 -15.128726 -0.000000 0.000000 0.000000 -0.000000 0.000000 0.000000 0.000000 0.000000 0.000000 0.000000 0.000000 -15.128726 -0.000000 0.000000 0.000000 -0.000000 0.000000 0.000000 0.000000 0.000000 0.000000
30.159720 70.512634 362.238863 0.030866 0.039564 15.221201 -0.040171 -0.030073 -15.221222 -0.000000 0.000000 0.000000 -0.000000 0.000000 0.000000 0.000000 0.000000 0.000000 -0.000000 0.000000 0.000000 -0.069755 0.218727 -2.886264 -0.235673 0.952306 9.924464 -0.331618 -1.010983 -5.431537 0.000000 0.000000 0.000000 0.000000 0.000000 0.000000 -0.816968 0.056801 0.297559 1.412071 -0.401073 -0.767634 -1.838128 1.714105 5.199193 4.677847 0.141554 1.933761 0.000000 0.000000 0.000000 0.000000 0.000000 0.000000 -0.040171 -0.030073 -15.221222 -0.000000 0.000000 0.000000 -0.000000 0.000000 0.000000 0.000000 0.000000 0.000000 -0.040171 -0.030073 -15.221222 -0.000000 0.000000 0.000000 0.142475 -1.501009 0.887171 0.000000 0.000000 0.000000
30.161971 70.539204 362.230959 0.056144 0.071944 15.307793 -0.073146 -0.054570 -15.307863 -0.000000 0.000000 0.000000 -0.000000 0.000000 0.000000 0.000000 0.000000 0.000000 -0.000000 0.000000 0.000000 -0.143914 0.268514 -4.882716 -0.421914 1.881060 17.047003 -0.389329 -1.450375 -8.486017 0.000000 0.000000 0.000000 0.000000 0.000000 0.000000 -1.475799 0.145480 0.551605 2.561180 -0.792910 -1.378684 -2.961410 2.604771 7.958910 8.379857 0.552878 4.915819 0.000000 0.000000 0.000000 0.000000 0.000000 0.000000 -0.073146 -0.054570 -15.307863 -0.000000 0.000000 0.000000 -0.000000 0.000000 0.000000 0.000000 0.000000 0.000000 -0.073146 -0.054570 -15.307863 -0.000000 0.000000 0.000000 0.258191 -2.575820 1.528505 0.000000 0.000000 0.000000
30.164514 70.562732 362.223622 0.075828 0.097134 15.388492 -0.098885 -0.073529 -15.388620 -0.000000 0.000000 0.000000 -0.759175 -0.613535 -0.197384 0.000000 0.000000 0.000000 -0.000000 0.000000 0.000000 -0.232497 0.149593 -5.998977 -0.462135 2.860049 21.581130 0.006759 -1.428440 -9.462471 0.000000 0.000000 0.000000 0.000000 0.000000 0.000000 -1.960448 0.268945 0.757037 3.431245 -1.167848 -1.825329 -3.440390 2.925286 8.808778 11.188328 1.219294 8.116976 0.000000 0.000000 0.000000 0.000000 0.000000 0.000000 -0.098885 -0.073529 -15.388620 -0.000000 0.000000 0.000000 -0.000000 0.000000 0.000000 0.000000 0.000000 0.000000 -0.098885 -0.073529 -15.388620 -0.000000 0.000000 0.000000 0.327014 -3.176455 1.892004 0.000000 0.000000 0.000000
30.167349 70.583218 362.216850 0.089916 0.115128 15.463294 -0.117357 -0.086987 -15.463473 -0.000000 0.000000 0.000000 -0.906193 -0.629091 -0.212964 0.000000 0.000000 0.000000 -0.000000 0.000000 0.000000 -0.337945 -0.138707 -6.246279 -0.288197 3.948700 23.737307 0.848558 -1.039942 -8.763379 0.000000 0.000000 0.000000 0.000000 0.000000 0.000000 -2.257724 0.429145 0.909226 4.008070 -1.518302 -2.100316 -3.370101 2.805626 8.129361 13.220955 2.035817 11.073655 0.000000 0.000000 0.000000 0.000000 0.000000 0.000000 -0.117357 -0.086987 -15.463473 -0.000000 0.000000 0.000000 -0.000000 0.000000 0.000000 0.000000 0.000000 0.000000 -0.117357 -0.086987 -15.463473 -0.000000 0.000000 0.000000 0.336600 -3.276105 1.958952 0.000000 0.000000 0.000000
30.170475 70.600661 362.210644 0.098405 0.125927 15.532204 -0.128533 -0.094977 -15.532419 -0.000000 0.000000 0.000000 -1.002182 -0.552652 -0.203264 0.000000 0.000000 0.000000 0.447717 -0.783574 0.222119 -0.902107 0.187951 -5.839499 0.165748 5.175568 23.646911 1.964430 -0.349911 -6.780507 0.000000 0.000000 0.000000 0.000000 0.000000 0.000000 -2.357820 0.626835 1.004119 4.279547 -1.836934 -2.196897 -2.843219 2.301562 6.188896 14.595754 2.869149 13.535022 0.000000 0.000000 0.000000 0.000000 0.000000 0.000000 -0.128533 -0.094977 -15.532419 -0.000000 0.000000 0.000000 -0.000000 0.000000 0.000000 0.000000 0.000000 0.000000 -0.128533 -0.094977 -15.532419 -0.000000 0.000000 0.000000 0.284784 -2.870231 1.726007 0.000000 0.000000 0.000000
30.175543 70.610941 362.211513 0.101527 0.113767 15.591574 -0.128369 -0.082292 -15.591767 -0.000000 0.000000 0.000000 -1.046184 -0.337291 -0.157256 0.000000 0.000000 0.000000 1.109764 -1.611640 0.459019 -1.940390 -0.200725 -5.755490 2.364663 9.615038 23.134841 -0.527044 -1.744060 -4.687342 0.000000 0.000000 0.000000 0.000000 0.000000 0.000000 -2.400319 0.913655 1.105787 4.296816 -2.118875 -2.309837 -2.653534 1.357573 0.803059 20.873029 2.683430 17.186338 0.000000 0.000000 0.000000 0.000000 0.000000 0.000000 -0.128369 -0.082292 -15.591767 -0.000000 0.000000 0.000000 -0.000000 0.000000 0.000000 0.000000 0.000000 0.000000 -0.128369 -0.082292 -15.591767 -0.000000 0.000000 0.000000 0.008990 -0.875470 0.716579 0.000000 0.000000 0.000000
30.170840 70.624726 362.202344 0.087372 0.108935 15.638557 -0.113503 -0.081349 -15.638721 -0.000000 0.000000 0.000000 -0.995270 -0.045615 -0.086180 0.000000 0.000000 0.000000 3.277113 -4.562487 1.390439 -4.465817 0.905559 -3.703266 4.462644 13.021954 19.183891 2.741290 0.390608 0.051288 0.000000 0.000000 0.000000 0.000000 0.000000 0.000000 -1.858543 1.002815 0.940065 3.818815 -2.223114 -2.199465 0.143396 -0.582899 -1.576296 16.264851 1.760878 12.938195 0.000000 0.000000 0.000000 0.000000 0.000000 0.000000 -0.113503 -0.081349 -15.638721 -0.000000 0.000000 0.000000 -0.000000 0.000000 0.000000 0.000000 0.000000 0.000000 -0.113503 -0.081349 -15.638721 -0.000000 0.000000 0.000000 -0.254510 1.739510 -0.706701 0.000000 0.000000 0.000000
30.174887 70.634292 362.196911 0.082691 0.101661 15.691094 -0.107104 -0.075508 -15.691237 -0.000000 0.000000 0.000000 -0.914544 0.359528 0.012868 0.000000 0.000000 0.000000 4.539233 -6.506827 2.070964 -5.421113 2.255866 0.927480 5.408847 11.432210 8.417869 8.009262 6.075692 7.366789 0.000000 0.000000 0.000000 0.000000 0.000000 0.000000 -1.381134 1.342750 0.870336 3.268032 -2.519631 -1.746716 -1.079544 -0.240082 -3.853566 16.338115 1.888395 14.235522 0.000000 0.000000 0.000000 0.000000 0.000000 0.000000 -0.107104 -0.075508 -15.691237 -0.000000 0.000000 0.000000 -0.000000 0.000000 0.000000 0.000000 0.000000 0.000000 -0.493162 -0.837908 -15.872798 0.162846 0.838908 0.177291 -0.483925 4.762776 -2.323911 0.000000 0.000000 0.000000
30.188923 70.639555 362.193678 0.086156 0.096644 15.744594 -0.109147 -0.069640 -15.744733 -0.000000 0.000000 0.000000 -0.856376 0.682308 0.090958 0.000000 0.000000 0.000000 6.324441 -9.400617 3.173452 -6.467673 5.731939 5.548613 5.288754 9.383281 0.882256 9.758150 9.980892 12.746575 0.000000 0.000000 0.000000 0.000000 0.000000 0.000000 -0.511856 1.499422 0.605344 2.247877 -2.563277 -1.213883 1.738340 -1.992179 -4.587659 9.525042 2.675810 11.699547 0.000000 0.000000 0.000000 0.000000 0.000000 0.000000 -0.109147 -0.069640 -15.744733 -0.000000 0.000000 0.000000 -0.000000 0.000000 0.000000 0.000000 0.000000 0.000000 -0.710355 -0.852061 -15.969707 0.362796 0.917603 0.217233 -0.190436 2.439088 -1.409709 0.000000 0.000000 0.000000
30.211959 70.639570 362.191574 0.095781 0.094814 15.814777 -0.117995 -0.065122 -15.814923 -0.000000 0.000000 0.000000 -0.821722 0.854299 0.132691 0.000000 0.000000 0.000000 6.260300 -9.982133 3.385119 -5.675379 8.373785 8.288511 1.637376 5.434870 1.895286 10.606679 9.209256 8.993788 0.000000 0.000000 0.000000 0.000000 0.000000 0.000000 0.820650 1.393786 0.102530 0.345118 -2.094059 -0.295712 6.106400 -3.315215 0.183093 -1.333404 6.744382 9.718002 0.000000 0.000000 0.000000 0.000000 0.000000 0.000000 -0.117995 -0.065122 -15.814923 -0.000000 0.000000 0.000000 -0.000000 0.000000 0.000000 0.000000 0.000000 0.000000 -0.918213 -0.820342 -16.073332 0.559929 0.947190 0.247597 -0.113397 2.484333 -1.646070 0.000000 0.000000 0.000000
30.234417 70.637737 362.190211 0.100347 0.098139 15.844158 -0.123329 -0.067013 -15.844316 -0.000000 0.000000 0.000000 -0.894331 1.090057 0.181784 0.000000 0.000000 0.000000 4.557132 -8.899010 2.911155 -3.403836 9.889218 10.651703 -2.466600 -0.039209 -2.566889 12.284872 11.186570 9.079278 0.000000 0.000000 0.000000 0.000000 0.000000 0.000000 1.614756 1.718575 -0.090889 -1.073361 -2.078169 0.639368 9.964467 -5.734246 -0.867649 -6.211814 8.463743 9.308423 0.000000 0.000000 0.000000 0.000000 0.000000 0.000000 -0.123329 -0.067013 -15.844316 -0.000000 0.000000 0.000000 -0.000000 0.000000 0.000000 0.000000 0.000000 0.000000 -1.080786 -0.771175 -16.124769 0.724332 0.942284 0.267493 -0.043798 2.522724 -1.857604 0.000000 0.000000 0.000000
